# xmcd CD database file
#
# Track frame offsets:
#	150
#	27475
#	58218
#	97713
#	140218
#	166720
#	196365
#	228260
#	278423
#
# Disc length: 4447 seconds
#
# Revision: 4
# Processed by: cddbd v1.5.1PL2 Copyright (c) Steve Scherf et al.
# Submitted via: CDex 1.51
#
DISCID=73115d09
DTITLE=Ruben Blades Y Son Del Solar - Live!
DYEAR=1989
DGENRE=Salsa
TTITLE0=Decisiones
TTITLE1=Cuentas Del Alma
TTITLE2=El Padre Antonio
TTITLE3=Pedro Navaja
TTITLE4=Todos Vuelven
TTITLE5=La Cancion Del Final Del Mundo
TTITLE6=Ojos De Perro Azul
TTITLE7=Buscando America
TTITLE8=Muevete
EXTD=YEAR: 1989
EXTT0=
EXTT1=
EXTT2=
EXTT3=
EXTT4=
EXTT5=
EXTT6=
EXTT7=
EXTT8=
PLAYORDER=
